# xmcd
#
# Track frame offsets: 
#        150
#        11597
#        22581
#        34689
#        47230
#        62835
#        75050
#        84737
#        100151
#        117008
#        129876
#        142096
#        153973
#        164655
#
# Disc length: 2339 seconds
#
# Revision: 0
# Processed by: cddbd v1.5.1PL0 Copyright (c) Steve Scherf et al.
# Submitted via: ExactAudioCopy v0.95b1
#
DISCID=a109210e
DTITLE=Dale Watson - Heeah!!
DYEAR=2005
DGENRE=Country
TTITLE0=Sit And Drink And Cry
TTITLE1=Whiskey Or God
TTITLE2=I Don't Feel Lucky Today
TTITLE3=No Help Wanted
TTITLE4=My Heart Is Yours
TTITLE5=It Hurts So Good
TTITLE6=Truckin' Queen (I Got My Night Gown On..)
TTITLE7=Darlin' Look At Me Now
TTITLE8=I Wish I Was Crazy Again
TTITLE9=I Ain't Been Right, Since I've Been Left
TTITLE10=Tequila And Teardrops
TTITLE11=38..21..24
TTITLE12=Outta Luck
TTITLE13=Heeah!!
EXTD=
EXTT0=
EXTT1=
EXTT2=
EXTT3=
EXTT4=
EXTT5=
EXTT6=
EXTT7=
EXTT8=
EXTT9=
EXTT10=
EXTT11=
EXTT12=
EXTT13=
PLAYORDER=
